<svg width="1067" height="1080" viewBox="0 0 1067 1080" fill="none" xmlns="http://www.w3.org/2000/svg">
<path d="M746.264 129.975C812.911 134.61 852.32 220.351 866.809 301.458C881.297 383.144 870.286 460.196 873.184 538.985C876.081 617.775 892.308 697.723 873.763 771.878C855.218 846.032 801.9 914.394 732.355 925.981C662.81 936.988 577.038 891.8 489.527 894.117C402.596 897.014 313.926 947.416 252.495 931.195C191.643 914.973 158.029 832.128 164.404 755.077C170.779 678.605 217.142 607.926 202.074 528.557C187.006 449.188 109.927 361.129 102.393 282.34C94.8592 203.55 156.87 134.03 232.79 135.189C309.29 136.348 400.278 207.026 493.004 204.709C585.151 201.812 679.617 125.34 746.264 129.975Z" fill="#1F2933"/>
</svg>
