<svg width="500" height="1072" viewBox="0 50 1150 1072" fill="none" xmlns="http://www.w3.org/2000/svg">
<path d="M772.28 166.914C836.91 171.41 875.126 254.586 889.176 333.266C903.226 412.508 892.548 487.254 895.358 563.686C898.168 640.118 913.904 717.674 895.92 789.61C877.936 861.546 826.232 927.862 758.792 939.102C691.352 949.78 608.176 905.944 523.314 908.192C439.014 911.002 353.028 959.896 293.456 944.16C234.446 928.424 201.85 848.058 208.032 773.312C214.214 699.128 259.174 630.564 244.562 553.57C229.95 476.576 155.204 391.152 147.898 314.72C140.592 238.288 200.726 170.848 274.348 171.972C348.532 173.096 436.766 241.66 526.686 239.412C616.044 236.602 707.65 162.418 772.28 166.914Z" fill="#1F2933"/>
</svg>
