<svg width="360" height="264" viewBox="0 0 360 264" fill="none" xmlns="http://www.w3.org/2000/svg">
<path d="M0.5 12C0.5 5.64873 5.64873 0.5 12 0.5H348C354.351 0.5 359.5 5.64873 359.5 12V234C359.5 237.038 357.038 239.5 354 239.5H5.99999C2.96243 239.5 0.5 237.038 0.5 234V12Z" fill="#3E5266" stroke="white"/>
<rect x="12.5" y="24.5" width="335" height="191" fill="#222D38" stroke="white"/>
<path d="M0.5 240.5H359.5V258C359.5 261.038 357.038 263.5 354 263.5H5.99999C2.96243 263.5 0.5 261.038 0.5 258V240.5Z" fill="#3E5266" stroke="white"/>
<path d="M0.5 240.5H359.5V245.5H0.5V240.5Z" fill="#2F3E4D" stroke="white"/>
</svg>
