<svg width="840" height="596" viewBox="0 0 840 596" fill="none" xmlns="http://www.w3.org/2000/svg">
<path d="M118.82 533.388C277.257 616.151 534.113 616.151 692.53 533.388C850.948 450.624 850.967 316.429 692.53 233.665C534.094 150.902 277.238 150.902 118.82 233.665C-39.5973 316.429 -39.6162 450.624 118.82 533.388Z" fill="#FAFAFA"/>
<path d="M499.094 421.335C461.825 442.834 461.825 477.72 499.094 499.239C536.363 520.757 596.758 520.757 634.027 499.239C671.296 477.72 671.277 442.834 634.027 421.335C596.777 399.835 536.344 399.816 499.094 421.335Z" fill="#EBEBEB"/>
<path d="M106.7 112.933L206.538 81.8848L129.731 135.094L106.7 112.933Z" fill="#222D38"/>
<path d="M206.538 81.8847L99.0038 99.6211L75.9729 77.4412L206.538 81.8847Z" fill="#222D38"/>
<path d="M99.0044 99.6212V126.226L106.7 112.933L206.538 81.8848L99.0044 99.6212Z" fill="#455A64"/>
<path d="M99.0044 126.225L114.377 120.326L106.7 112.933L99.0044 126.225Z" fill="#222D38"/>
<path d="M106.7 112.933L114.377 120.326L111.919 121.252L106.7 112.933Z" fill="#455A64"/>
<path d="M82.4591 122.216C82.1411 122.222 81.8304 122.121 81.5769 121.929C81.3233 121.737 81.1416 121.466 81.0608 121.158C80.9801 120.851 81.0051 120.525 81.1318 120.233C81.2585 119.942 81.4796 119.701 81.7594 119.55C83.4612 118.605 85.1819 117.659 86.8837 116.922C87.0525 116.83 87.238 116.774 87.429 116.757C87.6201 116.739 87.8127 116.761 87.9953 116.82C88.1778 116.879 88.3465 116.975 88.491 117.101C88.6356 117.227 88.753 117.381 88.8362 117.554C88.9195 117.727 88.9668 117.915 88.9752 118.106C88.9837 118.298 88.9532 118.489 88.8856 118.669C88.818 118.849 88.7146 119.013 88.5818 119.151C88.4489 119.289 88.2894 119.399 88.1128 119.474C86.4677 120.269 84.7848 121.12 83.1398 122.046C82.9293 122.155 82.6962 122.214 82.4591 122.216V122.216Z" fill="#E0E0E0"/>
<path d="M65.0061 274.924C64.7163 274.927 64.4326 274.841 64.193 274.678C61.1178 272.51 58.2044 270.121 55.4761 267.53C55.3032 267.418 55.1568 267.27 55.0472 267.095C54.9376 266.92 54.8673 266.724 54.8413 266.52C54.8154 266.315 54.8343 266.107 54.8968 265.911C54.9593 265.714 55.0638 265.534 55.2032 265.382C55.3426 265.23 55.5133 265.11 55.7037 265.031C55.894 264.952 56.0993 264.916 56.3053 264.924C56.5113 264.932 56.713 264.985 56.8963 265.079C57.0797 265.174 57.2403 265.307 57.367 265.469C59.9986 267.967 62.811 270.268 65.7813 272.352C66.0261 272.527 66.2089 272.776 66.3031 273.061C66.3974 273.347 66.3982 273.656 66.3056 273.942C66.2129 274.228 66.0316 274.478 65.7878 274.654C65.544 274.831 65.2503 274.925 64.9494 274.924H65.0061ZM50.1816 261.158C49.9723 261.16 49.7651 261.116 49.5753 261.027C49.3855 260.939 49.2179 260.809 49.0849 260.648C46.7023 257.74 44.5347 254.662 42.5992 251.439C42.4036 251.116 42.3446 250.728 42.435 250.361C42.5254 249.994 42.7579 249.678 43.0814 249.482C43.4049 249.286 43.7928 249.227 44.1598 249.318C44.5268 249.408 44.8429 249.641 45.0385 249.964C46.9028 253.072 48.9881 256.042 51.2783 258.851C51.5145 259.14 51.6272 259.511 51.5918 259.883C51.5564 260.255 51.3758 260.597 51.0893 260.837C50.836 261.051 50.5132 261.165 50.1816 261.158V261.158ZM39.536 243.951C39.2613 243.954 38.9918 243.877 38.7602 243.729C38.5286 243.581 38.3448 243.369 38.2313 243.119C36.6862 239.696 35.3599 236.178 34.2605 232.587C34.1798 232.238 34.2345 231.871 34.4135 231.56C34.5924 231.249 34.8825 231.018 35.2252 230.912C35.5679 230.807 35.9379 230.835 36.2605 230.992C36.5832 231.148 36.8347 231.421 36.9644 231.755C38.0097 235.228 39.2728 238.632 40.7462 241.947C40.8254 242.117 40.8702 242.301 40.8778 242.488C40.8855 242.675 40.856 242.862 40.7909 243.038C40.7258 243.214 40.6266 243.375 40.4988 243.513C40.371 243.65 40.2173 243.76 40.0466 243.838C39.8856 243.909 39.712 243.948 39.536 243.951ZM33.3907 224.645C33.0627 224.642 32.7459 224.526 32.4942 224.315C32.2425 224.105 32.0715 223.814 32.0103 223.492C31.2885 219.818 30.7772 216.106 30.4787 212.374C30.4486 211.997 30.5692 211.625 30.8139 211.338C31.0585 211.05 31.4073 210.872 31.7834 210.842C32.1595 210.812 32.5322 210.932 32.8194 211.177C33.1067 211.422 33.2849 211.771 33.315 212.147C33.5932 215.772 34.0857 219.377 34.7899 222.944C34.8283 223.126 34.8298 223.315 34.7942 223.498C34.7587 223.681 34.6868 223.856 34.5828 224.011C34.4789 224.166 34.3449 224.298 34.1889 224.401C34.0329 224.503 33.8579 224.574 33.6743 224.608L33.3907 224.645ZM31.5943 204.451C31.4074 204.451 31.2223 204.413 31.05 204.341C30.8777 204.268 30.7217 204.162 30.5913 204.028C30.4609 203.894 30.3586 203.735 30.2905 203.561C30.2225 203.387 30.19 203.201 30.1951 203.014C30.2393 199.271 30.4918 195.534 30.9514 191.82C30.9536 191.62 30.9978 191.424 31.0811 191.243C31.1644 191.061 31.285 190.9 31.435 190.768C31.585 190.637 31.761 190.539 31.9515 190.48C32.142 190.421 32.3428 190.403 32.5407 190.427C32.7387 190.451 32.9293 190.517 33.1002 190.62C33.2711 190.722 33.4184 190.86 33.5325 191.024C33.6466 191.187 33.7249 191.373 33.7624 191.569C33.7999 191.764 33.7956 191.966 33.7499 192.16C33.3127 195.775 33.0729 199.411 33.0314 203.052C33.0289 203.238 32.9898 203.422 32.9163 203.593C32.8427 203.764 32.7362 203.919 32.6027 204.049C32.4693 204.179 32.3115 204.281 32.1385 204.35C31.9655 204.419 31.7806 204.453 31.5943 204.451V204.451ZM33.9012 184.313C33.7948 184.331 33.6861 184.331 33.5798 184.313C33.2144 184.232 32.896 184.009 32.6941 183.694C32.4922 183.378 32.4231 182.996 32.502 182.63C33.3305 178.967 34.3915 175.361 35.6786 171.833C35.7413 171.649 35.8411 171.48 35.972 171.336C36.1028 171.192 36.2619 171.077 36.4392 170.997C36.6165 170.917 36.8084 170.875 37.0028 170.872C37.1973 170.87 37.3902 170.907 37.5695 170.982C37.752 171.047 37.9194 171.148 38.0618 171.28C38.2041 171.411 38.3185 171.57 38.398 171.746C38.4774 171.923 38.5204 172.114 38.5242 172.308C38.5281 172.501 38.4928 172.694 38.4204 172.873C37.1797 176.284 36.1566 179.77 35.3572 183.311C35.2638 183.618 35.0689 183.884 34.8044 184.066C34.5399 184.249 34.2215 184.335 33.9012 184.313V184.313ZM40.6327 165.215C40.4147 165.224 40.1986 165.171 40.0087 165.064C39.8395 164.985 39.6878 164.873 39.5626 164.735C39.4373 164.596 39.341 164.434 39.2793 164.258C39.2176 164.082 39.1918 163.895 39.2034 163.709C39.2151 163.522 39.2638 163.34 39.3469 163.173C40.9973 159.803 42.8539 156.538 44.9061 153.397C45.1127 153.104 45.4226 152.901 45.7734 152.827C46.1243 152.753 46.49 152.815 46.797 153C47.0967 153.201 47.3073 153.51 47.3848 153.862C47.4623 154.214 47.4007 154.583 47.213 154.891C45.2183 157.925 43.4183 161.083 41.824 164.345C41.7261 164.587 41.5627 164.796 41.3523 164.95C41.1418 165.104 40.8926 165.195 40.6327 165.215V165.215ZM51.5052 148.197C51.189 148.201 50.8814 148.094 50.6354 147.895C50.488 147.779 50.3651 147.635 50.2738 147.471C50.1825 147.307 50.1246 147.126 50.1035 146.94C50.0824 146.754 50.0985 146.565 50.1508 146.385C50.2032 146.204 50.2908 146.037 50.4085 145.89C52.7715 142.971 55.2966 140.187 57.972 137.552C58.2379 137.286 58.5984 137.137 58.9742 137.137C59.35 137.137 59.7105 137.286 59.9764 137.552C60.2419 137.818 60.3911 138.178 60.3911 138.554C60.3911 138.93 60.2419 139.29 59.9764 139.556C57.3995 142.127 54.963 144.835 52.6776 147.668C52.5311 147.83 52.3488 147.955 52.1453 148.034C51.9417 148.113 51.7225 148.143 51.5052 148.122V148.197ZM65.7246 133.675C65.5185 133.675 65.3149 133.629 65.1286 133.541C64.9423 133.452 64.7778 133.324 64.6468 133.165C64.4073 132.875 64.2909 132.503 64.3228 132.128C64.3546 131.753 64.532 131.406 64.817 131.161C67.6956 128.767 70.6933 126.52 73.7987 124.429C74.1035 124.242 74.4676 124.177 74.8183 124.247C75.1689 124.317 75.4801 124.517 75.6895 124.807C75.9006 125.121 75.9792 125.506 75.9084 125.878C75.8376 126.249 75.6231 126.578 75.3114 126.793C72.2817 128.827 69.3595 131.017 66.5566 133.354C66.3191 133.544 66.0285 133.657 65.7246 133.675V133.675Z" fill="#E0E0E0"/>
<path d="M78.0155 282.317C77.8125 282.319 77.612 282.273 77.4293 282.185C75.6708 281.391 73.9312 280.54 72.2672 279.632C72.1045 279.547 71.9603 279.43 71.8428 279.288C71.7252 279.147 71.6367 278.984 71.5823 278.808C71.5278 278.633 71.5085 278.448 71.5255 278.265C71.5424 278.082 71.5953 277.904 71.681 277.741C71.8576 277.416 72.154 277.173 72.5073 277.064C72.8605 276.954 73.2425 276.987 73.5719 277.155C75.1981 278.025 76.8809 278.857 78.5827 279.632C78.8746 279.768 79.1116 279.999 79.2547 280.287C79.3979 280.576 79.4387 280.904 79.3705 281.219C79.3024 281.533 79.1292 281.815 78.8795 282.018C78.6298 282.221 78.3184 282.334 77.9965 282.336L78.0155 282.317Z" fill="#E0E0E0"/>
<path d="M724.789 213.697L804.773 162.492L840 173.8L724.789 213.697Z" fill="#222D38"/>
<path d="M724.789 213.697L793.919 156.063L778.546 138.327L724.789 213.697Z" fill="#222D38"/>
<path d="M793.919 156.063V169.431L724.789 213.697L793.919 156.063Z" fill="#455A64"/>
<path d="M809.519 150.485C809.176 150.487 808.845 150.358 808.593 150.126C808.313 149.876 808.143 149.526 808.118 149.151C808.093 148.776 808.216 148.407 808.46 148.122C810.923 145.375 813.108 142.392 814.984 139.216C815.174 138.89 815.487 138.653 815.852 138.557C816.217 138.461 816.605 138.515 816.931 138.705C817.257 138.896 817.494 139.208 817.59 139.573C817.686 139.939 817.632 140.327 817.442 140.653C815.462 143.982 813.17 147.116 810.597 150.013C810.462 150.164 810.295 150.285 810.109 150.366C809.923 150.448 809.722 150.488 809.519 150.485ZM820.335 132.863C820.166 132.889 819.993 132.889 819.824 132.863C819.645 132.794 819.482 132.69 819.344 132.557C819.206 132.423 819.097 132.264 819.023 132.087C818.949 131.91 818.911 131.72 818.912 131.529C818.914 131.337 818.954 131.147 819.03 130.972C820.366 127.528 821.367 123.962 822.018 120.326C822.085 119.955 822.298 119.626 822.608 119.411C822.918 119.197 823.301 119.114 823.672 119.182C824.043 119.25 824.372 119.462 824.587 119.772C824.801 120.083 824.884 120.465 824.816 120.837C824.12 124.647 823.062 128.382 821.659 131.993C821.552 132.254 821.368 132.478 821.132 132.633C820.895 132.788 820.618 132.868 820.335 132.863V132.863ZM824.381 112.573C824.196 112.571 824.013 112.532 823.843 112.458C823.673 112.384 823.519 112.277 823.391 112.144C823.262 112.01 823.162 111.852 823.095 111.679C823.028 111.506 822.996 111.322 823.001 111.136C823.001 110.645 823.001 110.153 823.001 109.662C822.993 106.451 822.74 103.246 822.245 100.075C822.19 99.7016 822.285 99.322 822.507 99.0178C822.73 98.7136 823.064 98.5092 823.436 98.4486C823.808 98.399 824.185 98.4953 824.488 98.7173C824.792 98.9393 824.997 99.2699 825.062 99.6399C825.573 102.956 825.832 106.306 825.837 109.662C825.837 110.172 825.837 110.683 825.837 111.193C825.823 111.568 825.662 111.922 825.39 112.179C825.118 112.437 824.756 112.579 824.381 112.573V112.573ZM821.526 92.0764C821.222 92.0754 820.926 91.9751 820.684 91.7908C820.441 91.6066 820.266 91.3484 820.184 91.0553C819.099 87.5074 817.74 84.0493 816.118 80.7122C816.035 80.545 815.986 80.3629 815.975 80.1766C815.963 79.9903 815.989 79.8035 816.051 79.6273C816.112 79.4511 816.209 79.289 816.334 79.1506C816.459 79.0122 816.611 78.9002 816.78 78.8214C817.119 78.6588 817.508 78.6372 817.862 78.7613C818.217 78.8853 818.508 79.1449 818.671 79.4831C820.362 82.9509 821.772 86.5488 822.888 90.2422C822.943 90.4197 822.962 90.6064 822.944 90.7915C822.926 90.9765 822.872 91.1561 822.784 91.3198C822.696 91.4835 822.576 91.628 822.431 91.7449C822.287 91.8619 822.121 91.9488 821.942 92.0007C821.81 92.0532 821.668 92.0789 821.526 92.0764V92.0764ZM812.752 73.3C812.514 73.3022 812.278 73.2423 812.069 73.1263C811.861 73.0103 811.686 72.8421 811.561 72.6382C809.534 69.5264 807.304 66.5513 804.886 63.7322C804.764 63.5908 804.671 63.4267 804.613 63.2494C804.554 63.072 804.532 62.8848 804.546 62.6986C804.56 62.5123 804.61 62.3307 804.695 62.1641C804.779 61.9975 804.896 61.8493 805.038 61.7278C805.178 61.6063 805.34 61.5138 805.516 61.4555C805.692 61.3973 805.877 61.3746 806.062 61.3886C806.247 61.4027 806.427 61.4533 806.592 61.5375C806.757 61.6217 806.903 61.7378 807.023 61.8791C809.533 64.7972 811.845 67.8799 813.944 71.1066C814.118 71.418 814.172 71.7826 814.096 72.1312C814.019 72.4798 813.817 72.7881 813.528 72.9975C813.302 73.1639 813.033 73.2623 812.752 73.2811V73.3ZM799.516 57.3977C799.155 57.3966 798.809 57.254 798.552 57.0007C795.829 54.4523 792.97 52.0536 789.986 49.8153C789.837 49.7036 789.712 49.5636 789.617 49.4034C789.522 49.2431 789.46 49.0657 789.433 48.8814C789.407 48.697 789.417 48.5093 789.463 48.3288C789.51 48.1484 789.591 47.9789 789.703 47.8299C789.814 47.6809 789.954 47.5554 790.115 47.4605C790.275 47.3656 790.452 47.3033 790.637 47.2769C790.821 47.2506 791.009 47.2608 791.189 47.307C791.37 47.3532 791.539 47.4345 791.688 47.5463C794.762 49.8435 797.703 52.3119 800.5 54.9396C800.71 55.1345 800.856 55.3886 800.919 55.6683C800.982 55.948 800.959 56.2402 800.852 56.5064C800.746 56.7726 800.561 57.0003 800.323 57.1594C800.084 57.3185 799.803 57.4016 799.516 57.3977V57.3977ZM782.933 44.8045C782.665 44.802 782.403 44.7233 782.177 44.5776C780.891 43.7834 779.549 42.9893 778.187 42.214C776.296 41.1551 774.406 40.0962 772.401 39.0941C772.218 39.0207 772.053 38.91 771.915 38.769C771.777 38.628 771.67 38.4599 771.601 38.2753C771.532 38.0907 771.502 37.8937 771.513 37.6968C771.524 37.5 771.577 37.3077 771.666 37.1322C771.756 36.9567 771.881 36.8018 772.034 36.6774C772.187 36.5531 772.364 36.462 772.555 36.4099C772.745 36.3579 772.944 36.3461 773.139 36.3752C773.334 36.4044 773.52 36.4738 773.687 36.5792C775.672 37.6003 777.658 38.6592 779.587 39.7559C780.986 40.5311 782.347 41.3442 783.671 42.1762C783.976 42.3713 784.196 42.6759 784.284 43.0276C784.371 43.3792 784.321 43.7512 784.144 44.0671C784.021 44.2829 783.846 44.4639 783.634 44.593C783.422 44.722 783.181 44.7948 782.933 44.8045V44.8045ZM613.416 43.8402C613.167 43.8375 612.922 43.7698 612.707 43.6438C612.491 43.5178 612.312 43.3378 612.187 43.1216C612.008 42.8023 611.961 42.4255 612.057 42.072C612.152 41.7185 612.382 41.4165 612.698 41.2308C615.988 39.3399 619.373 37.449 622.795 35.8607C623.131 35.6968 623.519 35.6724 623.873 35.7928C624.227 35.9132 624.519 36.1687 624.686 36.5036C624.844 36.8429 624.863 37.2303 624.739 37.5833C624.615 37.9364 624.359 38.2274 624.024 38.3945C620.659 40.0395 617.331 41.798 614.097 43.67C613.886 43.773 613.651 43.8186 613.416 43.8024V43.8402ZM764.497 35.1989C764.3 35.2001 764.106 35.1548 763.93 35.0665C760.527 33.5727 757.009 32.1735 753.492 30.9255C753.136 30.7976 752.846 30.5335 752.684 30.1913C752.523 29.8491 752.504 29.4569 752.632 29.1008C752.76 28.7447 753.024 28.4541 753.366 28.2927C753.708 28.1314 754.101 28.1126 754.457 28.2405C758.031 29.5263 761.604 30.9444 765.084 32.476C765.387 32.605 765.636 32.8357 765.788 33.1283C765.939 33.4209 765.984 33.7573 765.915 34.0795C765.846 34.4018 765.666 34.6898 765.407 34.8941C765.149 35.0983 764.827 35.2061 764.497 35.1989V35.1989ZM632.042 34.6127C631.762 34.6146 631.488 34.5328 631.256 34.3777C631.023 34.2227 630.843 34.0016 630.737 33.7429C630.659 33.5695 630.617 33.3823 630.614 33.1924C630.61 33.0025 630.644 32.8137 630.715 32.6374C630.785 32.461 630.891 32.3006 631.024 32.1657C631.158 32.0308 631.318 31.9241 631.493 31.852C634.991 30.3772 638.584 29.0157 642.177 27.7867C642.357 27.7118 642.551 27.6752 642.747 27.6789C642.942 27.6827 643.135 27.7268 643.312 27.8084C643.49 27.8901 643.648 28.0076 643.778 28.1535C643.908 28.2995 644.007 28.4707 644.068 28.6565C644.136 28.8387 644.168 29.033 644.16 29.2276C644.153 29.4223 644.106 29.6135 644.023 29.7898C643.94 29.9661 643.823 30.124 643.678 30.2542C643.533 30.3843 643.363 30.484 643.179 30.5473C639.643 31.7575 636.088 33.1 632.666 34.5371C632.463 34.5935 632.25 34.6064 632.042 34.5749V34.6127ZM744.984 28.0703C744.852 28.0887 744.718 28.0887 744.586 28.0703C741.013 27.0303 737.344 26.1794 733.695 25.2907C733.512 25.251 733.34 25.1757 733.186 25.0691C733.033 24.9626 732.902 24.8269 732.801 24.6697C732.7 24.5126 732.631 24.3371 732.598 24.1532C732.565 23.9694 732.568 23.7809 732.608 23.5984C732.647 23.4159 732.723 23.243 732.829 23.0895C732.936 22.9361 733.072 22.8052 733.229 22.7042C733.386 22.6033 733.561 22.5343 733.745 22.5011C733.929 22.468 734.118 22.4714 734.3 22.5111C738.082 23.3242 741.75 24.2885 745.381 25.3474C745.708 25.443 745.991 25.6536 746.176 25.9405C746.36 26.2275 746.436 26.5715 746.387 26.9094C746.339 27.2473 746.171 27.5565 745.913 27.7802C745.655 28.0039 745.325 28.127 744.984 28.127V28.0703ZM651.669 27.7867C651.36 27.7855 651.059 27.6832 650.813 27.4955C650.568 27.3077 650.39 27.0448 650.307 26.7467C650.256 26.5691 650.239 26.3831 650.26 26.1992C650.28 26.0154 650.337 25.8375 650.427 25.6757C650.516 25.5139 650.637 25.3715 650.782 25.2568C650.927 25.142 651.094 25.0571 651.272 25.0071C654.921 23.986 658.665 23.1162 662.39 22.2842C662.579 22.224 662.778 22.2039 662.975 22.2254C663.172 22.2469 663.362 22.3095 663.534 22.409C663.705 22.5085 663.854 22.6429 663.97 22.8033C664.086 22.9638 664.167 23.1469 664.209 23.3407C664.25 23.5345 664.25 23.7348 664.209 23.9286C664.168 24.1225 664.087 24.3056 663.971 24.4662C663.854 24.6267 663.706 24.7612 663.535 24.8609C663.363 24.9605 663.173 25.0232 662.976 25.0449C659.308 25.8201 655.64 26.7278 652.047 27.7299L651.669 27.7867ZM724.713 23.5133H724.43C720.743 22.9271 716.98 22.4544 713.274 22.114C713.078 22.1119 712.885 22.0694 712.707 21.9893C712.529 21.9092 712.37 21.7931 712.238 21.6484C712.107 21.5037 712.007 21.3335 711.945 21.1484C711.883 20.9633 711.859 20.7673 711.876 20.5727C711.893 20.3781 711.95 20.1891 712.044 20.0176C712.137 19.8461 712.265 19.6957 712.419 19.5759C712.573 19.4561 712.751 19.3695 712.94 19.3214C713.129 19.2733 713.327 19.2649 713.519 19.2966C717.301 19.637 721.083 20.1097 724.865 20.7148C725.233 20.7797 725.562 20.986 725.781 21.2897C726 21.5934 726.092 21.9706 726.037 22.3409C725.97 22.6469 725.805 22.9223 725.565 23.1241C725.326 23.3259 725.026 23.4428 724.713 23.4565V23.5133ZM671.977 23.3809C671.64 23.3808 671.315 23.2608 671.058 23.0426C670.802 22.8243 670.631 22.522 670.578 22.1897C670.523 21.8165 670.617 21.4369 670.84 21.1327C671.063 20.8285 671.397 20.6241 671.769 20.5635C675.551 19.9963 679.332 19.5235 683.114 19.2021C683.3 19.1859 683.488 19.2066 683.666 19.263C683.844 19.3194 684.01 19.4103 684.153 19.5305C684.296 19.6508 684.414 19.7981 684.5 19.964C684.586 20.1299 684.639 20.3111 684.655 20.4973C684.671 20.6836 684.651 20.8712 684.594 21.0494C684.538 21.2276 684.447 21.393 684.327 21.5361C684.206 21.6792 684.059 21.7972 683.893 21.8834C683.727 21.9696 683.546 22.0223 683.36 22.0384C679.578 22.3598 675.891 22.7947 672.204 23.3809H671.977ZM704.027 21.49C700.245 21.3577 696.464 21.3388 692.776 21.49C692.591 21.5003 692.404 21.4727 692.229 21.4091C692.054 21.3456 691.894 21.2472 691.758 21.12C691.622 20.9928 691.513 20.8394 691.438 20.669C691.363 20.4987 691.323 20.3148 691.32 20.1286C691.313 19.9417 691.343 19.7552 691.409 19.5801C691.474 19.405 691.574 19.2448 691.703 19.1091C691.832 18.9733 691.986 18.8648 692.158 18.7898C692.329 18.7149 692.514 18.675 692.701 18.6726C696.483 18.5403 700.264 18.5592 704.046 18.6726C704.232 18.6775 704.416 18.7191 704.586 18.7949C704.756 18.8708 704.91 18.9794 705.038 19.1146C705.166 19.2498 705.266 19.409 705.333 19.5829C705.4 19.7569 705.431 19.9424 705.426 20.1286C705.398 20.4833 705.24 20.815 704.981 21.0595C704.723 21.304 704.383 21.444 704.027 21.4522V21.49Z" fill="#E0E0E0"/>
<path d="M696.898 241.342V238.316H696.161C695.038 236.267 693.334 234.596 691.264 233.513C687.039 231.369 682.368 230.251 677.63 230.251C672.893 230.251 668.222 231.369 663.997 233.513C661.926 234.596 660.222 236.267 659.1 238.316H658.362V241.247C658.362 244.14 660.253 247.052 664.035 249.264C668.263 251.398 672.932 252.51 677.668 252.51C682.404 252.51 687.074 251.398 691.301 249.264C695.045 247.128 696.917 244.216 696.898 241.342Z" fill="#37474F"/>
<path d="M677.63 249.453C688.272 249.453 696.898 244.467 696.898 238.316C696.898 232.165 688.272 227.179 677.63 227.179C666.989 227.179 658.362 232.165 658.362 238.316C658.362 244.467 666.989 249.453 677.63 249.453Z" fill="#455A64"/>
<path d="M672.676 145.587V237.011C672.717 237.445 672.871 237.86 673.123 238.216C673.375 238.571 673.717 238.853 674.113 239.034C675.201 239.584 676.402 239.871 677.621 239.871C678.839 239.871 680.041 239.584 681.128 239.034C681.529 238.858 681.876 238.577 682.132 238.221C682.388 237.865 682.544 237.448 682.584 237.011V145.587H672.676Z" fill="#37474F"/>
<path d="M699.848 77.1571C695.027 74.3775 690.64 74.1506 687.35 75.9848L626.104 111.382L656.831 173.005L718.284 137.457V110.493C718.284 97.9567 710.021 83.0377 699.848 77.1571Z" fill="#455A64"/>
<path d="M656.831 146.023V173.006L619.978 151.714V124.751C619.978 112.214 628.222 106.825 638.395 112.706C644.918 116.487 650.647 123.937 653.919 132.106C655.749 136.523 656.736 141.243 656.831 146.023Z" fill="#37474F"/>
<path d="M656.831 146.023V173.006L619.978 151.714L653.919 132.106C655.749 136.523 656.736 141.243 656.831 146.023Z" fill="#263238"/>
<path d="M650.685 155.269C647.301 145.474 636.296 132.768 626.104 126.906C615.912 121.044 610.429 124.202 613.813 133.997L619.959 151.733L656.831 173.024C656.831 173.024 654.089 165.064 650.685 155.269Z" fill="#455A64"/>
<path d="M676.042 147.044L673.981 145.852C673.539 145.649 673.05 145.566 672.565 145.613C672.08 145.659 671.616 145.833 671.221 146.117C670.081 146.862 669.134 147.865 668.454 149.044C667.774 150.224 667.381 151.546 667.306 152.905C667.255 153.392 667.335 153.884 667.538 154.33C667.74 154.775 668.059 155.158 668.46 155.439V155.439L670.351 156.536L670.71 155.95C671.103 155.865 671.479 155.718 671.826 155.515C672.964 154.774 673.912 153.774 674.592 152.598C675.272 151.422 675.665 150.102 675.74 148.745C675.738 148.407 675.693 148.07 675.607 147.743L676.042 147.044Z" fill="#263238"/>
<path d="M673.187 147.27C672.048 148.012 671.1 149.011 670.42 150.187C669.74 151.363 669.347 152.683 669.273 154.04C669.273 156.536 671.031 157.538 673.187 156.29C674.327 155.55 675.275 154.551 675.955 153.374C676.636 152.198 677.028 150.877 677.101 149.521C677.158 147.025 675.267 146.022 673.187 147.27Z" fill="#37474F"/>
<path d="M673.187 152.849C673.038 152.849 672.89 152.82 672.752 152.763C672.615 152.706 672.49 152.622 672.384 152.517C672.279 152.411 672.195 152.286 672.138 152.149C672.081 152.011 672.052 151.864 672.052 151.715V112.706C672.052 112.405 672.172 112.116 672.384 111.904C672.597 111.691 672.886 111.571 673.187 111.571C673.487 111.571 673.776 111.691 673.989 111.904C674.202 112.116 674.321 112.405 674.321 112.706V151.715C674.321 152.015 674.202 152.304 673.989 152.517C673.776 152.73 673.487 152.849 673.187 152.849V152.849Z" fill="#263238"/>
<path d="M674.208 113.727V123.9L685.118 112.706L674.208 113.727Z" fill="#37474F"/>
<path d="M100.593 451.173C99.6472 451.683 82.2889 456.599 75.86 448.109C69.431 439.619 80.1144 426.383 74.0825 421.505C68.0507 416.626 51.1462 421.505 47.0809 411.256C43.0155 401.008 55.0603 396.583 48.291 386.24C44.0176 379.716 32.0673 376.124 32.6157 370.054C33.4098 361.186 49.747 358.709 64.0042 368.295C78.2614 377.882 84.9173 370.016 89.4364 369.373C93.9556 368.73 103.713 370.149 103.41 386.032C103.107 401.915 100.593 451.173 100.593 451.173Z" fill="#222D38"/>
<path d="M101.746 428.652C101.52 428.651 101.302 428.571 101.129 428.426C100.957 428.281 100.84 428.08 100.8 427.858C95.8274 397.604 60.7895 373.155 42.5615 367.898C42.4409 367.866 42.3281 367.809 42.2299 367.732C42.1317 367.655 42.0502 367.559 41.9901 367.449C41.9301 367.34 41.8928 367.219 41.8805 367.095C41.8682 366.97 41.8811 366.845 41.9186 366.726C41.9888 366.485 42.1517 366.282 42.3716 366.162C42.5915 366.041 42.8502 366.013 43.0909 366.083C61.716 371.472 97.567 396.602 102.672 427.555C102.711 427.801 102.651 428.051 102.506 428.253C102.361 428.455 102.142 428.591 101.897 428.633L101.746 428.652Z" fill="white"/>
<path d="M60.4117 403.333C60.2038 403.335 60.001 403.268 59.8347 403.143C59.6684 403.019 59.5479 402.842 59.4919 402.642C59.436 402.442 59.4476 402.229 59.525 402.036C59.6024 401.843 59.7412 401.68 59.9201 401.574C60.4874 401.234 73.9882 393.349 87.2621 397.036C87.5129 397.101 87.7275 397.264 87.8587 397.487C87.9899 397.71 88.027 397.977 87.9618 398.228C87.8966 398.478 87.7344 398.693 87.511 398.824C87.2876 398.955 87.0213 398.992 86.7705 398.927C74.2529 395.448 61.0168 403.182 60.8844 403.257C60.7374 403.327 60.5733 403.353 60.4117 403.333V403.333Z" fill="white"/>
<path d="M594.905 291.412C602.355 292.433 615.043 288.122 615.95 275.718C616.858 263.313 621.982 259.948 631.38 257.924C640.777 255.901 643.538 252.63 644.616 246.73C645.694 240.831 638.546 233.778 640.55 224.891C642.555 216.004 649.248 216.023 655.829 205.982C660.045 199.515 651.404 189.645 637.014 193.881C622.625 198.116 623.778 207.4 609.389 208.592C594.999 209.783 585.98 218.519 585.696 229.391C585.413 240.264 594.905 291.412 594.905 291.412Z" fill="#222D38"/>
<path opacity="0.2" d="M594.905 291.412C602.355 292.433 615.043 288.122 615.95 275.718C616.858 263.313 621.982 259.948 631.38 257.924C640.777 255.901 643.538 252.63 644.616 246.73C645.694 240.831 638.546 233.778 640.55 224.891C642.555 216.004 649.248 216.023 655.829 205.982C660.045 199.515 651.404 189.645 637.014 193.881C622.625 198.116 623.778 207.4 609.389 208.592C594.999 209.783 585.98 218.519 585.696 229.391C585.413 240.264 594.905 291.412 594.905 291.412Z" fill="black"/>
<path d="M592.182 267.625H592.069C591.947 267.6 591.831 267.552 591.728 267.482C591.625 267.413 591.537 267.324 591.469 267.22C591.4 267.117 591.353 267.001 591.329 266.879C591.306 266.757 591.306 266.631 591.331 266.51C598.29 232.115 636.239 200.632 645.486 197.417C645.737 197.334 646.01 197.355 646.246 197.473C646.482 197.592 646.661 197.8 646.743 198.051C646.826 198.301 646.806 198.575 646.687 198.81C646.568 199.046 646.361 199.225 646.11 199.308C637.071 202.447 599.991 233.344 593.165 266.982C593.095 267.183 592.961 267.355 592.783 267.471C592.605 267.587 592.394 267.641 592.182 267.625V267.625Z" fill="white"/>
<path d="M92.6506 255.429C92.743 253.724 93.2364 252.065 94.0906 250.586C94.9448 249.108 96.1359 247.852 97.5669 246.92L348.883 101.815C350.406 101.05 352.086 100.651 353.79 100.651C355.494 100.651 357.174 101.05 358.697 101.815L364.237 105.029C365.671 105.957 366.865 107.213 367.719 108.692C368.574 110.171 369.065 111.832 369.153 113.538V306.18C369.056 307.884 368.561 309.542 367.707 311.02C366.853 312.497 365.665 313.754 364.237 314.689L112.921 459.776C111.398 460.55 109.713 460.953 108.005 460.953C106.296 460.953 104.612 460.55 103.088 459.776L97.5669 456.58C96.138 455.646 94.9485 454.39 94.0946 452.912C93.2406 451.434 92.746 449.776 92.6506 448.071V255.429Z" fill="#222D38"/>
<path opacity="0.3" d="M92.6506 255.429C92.743 253.724 93.2364 252.065 94.0906 250.586C94.9448 249.108 96.1359 247.852 97.5669 246.92L348.883 101.815C350.406 101.05 352.086 100.651 353.79 100.651C355.494 100.651 357.174 101.05 358.697 101.815L364.237 105.029C365.671 105.957 366.865 107.213 367.719 108.692C368.574 110.171 369.065 111.832 369.153 113.538V306.18C369.056 307.884 368.561 309.542 367.707 311.02C366.853 312.497 365.665 313.754 364.237 314.689L112.921 459.776C111.398 460.55 109.713 460.953 108.005 460.953C106.296 460.953 104.612 460.55 103.088 459.776L97.5669 456.58C96.138 455.646 94.9485 454.39 94.0946 452.912C93.2406 451.434 92.746 449.776 92.6506 448.071V255.429Z" fill="black"/>
<path d="M115.681 263.068L94.0877 250.589C93.2049 252.054 92.7103 253.72 92.6506 255.429V448.071C92.746 449.776 93.2406 451.434 94.0946 452.912C94.9485 454.39 96.138 455.647 97.5669 456.58L103.088 459.776C104.612 460.55 106.296 460.953 108.005 460.953C109.713 460.953 111.398 460.55 112.921 459.776L115.681 458.188V263.068Z" fill="#222D38"/>
<path opacity="0.5" d="M115.681 263.068L94.0877 250.589C93.2049 252.054 92.7103 253.72 92.6506 255.429V448.071C92.746 449.776 93.2406 451.434 94.0946 452.912C94.9485 454.39 96.138 455.647 97.5669 456.58L103.088 459.776C104.612 460.55 106.296 460.953 108.005 460.953C109.713 460.953 111.398 460.55 112.921 459.776L115.681 458.188V263.068Z" fill="black"/>
<path d="M369.153 113.538V306.18C369.089 307.944 368.561 309.659 367.621 311.153C366.895 312.411 365.917 313.506 364.747 314.368L364.558 314.481L364.237 314.689L112.921 459.776C112.44 460.115 111.881 460.328 111.296 460.394C110.711 460.46 110.118 460.378 109.574 460.154C109.05 459.824 108.627 459.357 108.35 458.804C108.074 458.25 107.954 457.632 108.004 457.015V264.297C107.962 263.607 108.087 262.918 108.369 262.287C108.651 261.656 109.082 261.103 109.625 260.676C110.168 260.248 110.807 259.959 111.486 259.832C112.165 259.705 112.865 259.745 113.526 259.948L219.207 285.078L233.048 288.368C234.682 288.674 236.368 288.528 237.924 287.944C239.481 287.361 240.848 286.363 241.878 285.059L257.913 262.728L365.844 112.46C367.659 109.926 369.153 110.399 369.153 113.538Z" fill="#222D38"/>
<path opacity="0.2" d="M369.153 113.538V306.18C369.089 307.944 368.561 309.659 367.621 311.153C366.895 312.411 365.917 313.506 364.747 314.368L364.558 314.481L364.237 314.689L112.921 459.776C112.44 460.115 111.881 460.328 111.296 460.394C110.711 460.46 110.118 460.378 109.574 460.154C109.05 459.824 108.627 459.357 108.35 458.804C108.074 458.25 107.954 457.632 108.004 457.015V264.297C107.962 263.607 108.087 262.918 108.369 262.287C108.651 261.656 109.082 261.103 109.625 260.676C110.168 260.248 110.807 259.959 111.486 259.832C112.165 259.705 112.865 259.745 113.526 259.948L219.207 285.078L233.048 288.368C234.682 288.674 236.368 288.528 237.924 287.944C239.481 287.361 240.848 286.363 241.878 285.059L257.913 262.728L365.844 112.46C367.659 109.926 369.153 110.399 369.153 113.538Z" fill="black"/>
<path d="M364.237 314.689L364.558 314.481L364.747 314.367C365.917 313.506 366.895 312.411 367.621 311.153C368.551 309.682 369.079 307.994 369.153 306.255L257.913 262.765L332.413 333.106L364.237 314.689Z" fill="#222D38"/>
<path opacity="0.6" d="M364.237 314.689L364.558 314.481L364.747 314.367C365.917 313.506 366.895 312.411 367.621 311.153C368.551 309.682 369.079 307.994 369.153 306.255L257.913 262.765L332.413 333.106L364.237 314.689Z" fill="black"/>
<path d="M108.004 457.015C107.932 457.643 108.037 458.279 108.308 458.851C108.579 459.422 109.004 459.906 109.536 460.248C110.081 460.472 110.673 460.555 111.258 460.489C111.843 460.423 112.402 460.21 112.883 459.87L199.447 409.743L219.207 284.946L108.004 453.744V457.015Z" fill="#222D38"/>
<path opacity="0.6" d="M108.004 457.015C107.932 457.643 108.037 458.279 108.308 458.851C108.579 459.422 109.004 459.906 109.536 460.248C110.081 460.472 110.673 460.555 111.258 460.489C111.843 460.423 112.402 460.21 112.883 459.87L199.447 409.743L219.207 284.946L108.004 453.744V457.015Z" fill="black"/>
<path d="M367.622 311.153C366.896 312.411 365.917 313.506 364.748 314.368L364.559 314.481L112.921 459.776C112.44 460.115 111.881 460.328 111.296 460.394C110.711 460.46 110.119 460.378 109.574 460.154L229.928 268.022C232.347 264.174 236.072 261.326 240.419 259.999C244.767 258.673 249.447 258.957 253.602 260.799L367.622 311.153Z" fill="#222D38"/>
<path opacity="0.2" d="M367.622 311.153C366.896 312.411 365.917 313.506 364.748 314.368L364.559 314.481L112.921 459.776C112.44 460.115 111.881 460.328 111.296 460.394C110.711 460.46 110.119 460.378 109.574 460.154L229.928 268.022C232.347 264.174 236.072 261.326 240.419 259.999C244.767 258.673 249.447 258.957 253.602 260.799L367.622 311.153Z" fill="black"/>
<path d="M108.004 258.624L223.593 309.678C227.755 311.515 232.44 311.791 236.788 310.453C241.136 309.116 244.857 306.256 247.267 302.398L368.642 108.148L108.004 258.624Z" fill="#222D38"/>
<path opacity="0.6" d="M108.004 258.624L223.593 309.678C227.755 311.515 232.44 311.791 236.788 310.453C241.136 309.116 244.857 306.256 247.267 302.398L368.642 108.148L108.004 258.624Z" fill="black"/>
<path d="M108.004 258.624L224.406 302.114C228.429 303.616 232.843 303.704 236.922 302.364C241.001 301.024 244.503 298.335 246.851 294.74L368.642 108.148L108.004 258.624Z" fill="#222D38"/>
<path opacity="0.2" d="M108.004 258.624L224.406 302.114C228.429 303.616 232.843 303.704 236.922 302.364C241.001 301.024 244.503 298.335 246.851 294.74L368.642 108.148L108.004 258.624Z" fill="black"/>
<path d="M135.573 279.159C135.661 277.453 136.153 275.792 137.007 274.313C137.862 272.834 139.056 271.579 140.49 270.65L391.806 125.545C393.329 124.771 395.014 124.367 396.722 124.367C398.431 124.367 400.115 124.771 401.638 125.545L407.179 128.74C408.606 129.674 409.794 130.931 410.644 132.409C411.495 133.888 411.986 135.546 412.076 137.249V329.891C411.983 331.594 411.491 333.251 410.641 334.729C409.79 336.207 408.604 337.464 407.179 338.4L155.844 483.487C154.321 484.252 152.641 484.651 150.937 484.651C149.233 484.651 147.553 484.252 146.03 483.487L140.49 480.292C139.062 479.357 137.873 478.1 137.019 476.622C136.166 475.144 135.67 473.487 135.573 471.783V279.159Z" fill="#455A64"/>
<path d="M135.573 279.159C135.661 277.453 136.153 275.792 137.007 274.313C137.862 272.834 139.056 271.579 140.49 270.65L391.806 125.545C393.329 124.771 395.014 124.367 396.722 124.367C398.431 124.367 400.115 124.771 401.638 125.545L407.179 128.74C408.606 129.674 409.794 130.931 410.644 132.409C411.495 133.888 411.986 135.546 412.076 137.249V329.891C411.983 331.594 411.491 333.251 410.641 334.729C409.79 336.207 408.604 337.464 407.179 338.4L155.844 483.487C154.321 484.252 152.641 484.651 150.937 484.651C149.233 484.651 147.553 484.252 146.03 483.487L140.49 480.292C139.062 479.357 137.873 478.1 137.019 476.622C136.166 475.144 135.67 473.487 135.573 471.783V279.159Z" fill="#455A64"/>
<path d="M158.623 286.836L137.011 274.375C136.125 275.84 135.631 277.506 135.573 279.216V471.802C135.67 473.506 136.166 475.163 137.019 476.641C137.873 478.119 139.062 479.376 140.49 480.311L146.03 483.506C147.553 484.271 149.233 484.67 150.937 484.67C152.641 484.67 154.321 484.271 155.844 483.506L158.623 481.899V286.836Z" fill="#263238"/>
<path d="M412.095 137.249V329.891C412.031 331.655 411.503 333.37 410.563 334.864C409.837 336.123 408.859 337.217 407.689 338.079L407.5 338.192L407.179 338.4L155.863 483.487C155.382 483.827 154.823 484.039 154.238 484.105C153.653 484.171 153.06 484.089 152.516 483.865C151.984 483.523 151.558 483.039 151.288 482.467C151.017 481.896 150.912 481.26 150.984 480.632V288.008C150.941 287.319 151.066 286.629 151.349 285.998C151.631 285.367 152.062 284.815 152.605 284.387C153.148 283.959 153.786 283.67 154.466 283.543C155.145 283.416 155.845 283.456 156.505 283.659L262.186 308.789L276.028 312.079C277.661 312.385 279.348 312.239 280.904 311.656C282.46 311.072 283.828 310.075 284.858 308.77L300.874 286.439L408.805 136.171C410.544 133.675 412.095 134.11 412.095 137.249Z" fill="#37474F"/>
<path d="M407.179 338.401L407.5 338.193L407.689 338.079C408.859 337.217 409.837 336.123 410.563 334.865C411.481 333.397 412.002 331.716 412.076 329.986L300.855 286.496L375.336 356.799L407.179 338.401Z" fill="#263238"/>
<path d="M150.946 480.651C150.874 481.279 150.979 481.915 151.25 482.486C151.521 483.058 151.946 483.542 152.478 483.884C153.022 484.108 153.615 484.191 154.2 484.124C154.785 484.058 155.344 483.846 155.825 483.506V483.506L242.351 433.549L262.111 308.751L150.908 477.417L150.946 480.651Z" fill="#263238"/>
<path d="M410.545 334.864C409.819 336.123 408.84 337.217 407.671 338.079L407.482 338.192L155.863 483.487C155.382 483.827 154.823 484.039 154.238 484.105C153.653 484.172 153.061 484.089 152.516 483.865L272.851 291.752C275.264 287.897 278.986 285.041 283.334 283.708C287.682 282.374 292.366 282.652 296.525 284.491L410.545 334.864Z" fill="#37474F"/>
<path d="M150.946 282.355L266.535 333.409C270.695 335.241 275.375 335.513 279.719 334.176C284.063 332.839 287.781 329.983 290.19 326.129L411.566 131.785L150.946 282.355Z" fill="#263238"/>
<path d="M150.946 282.355L267.33 325.845C271.355 327.352 275.773 327.442 279.856 326.102C283.939 324.761 287.444 322.07 289.793 318.471L411.566 131.785L150.946 282.355Z" fill="#37474F"/>
<path d="M319.915 432.074V239.432C320.091 235.777 321.233 232.234 323.224 229.165L443.087 62.2571C445.274 59.2078 448.319 56.8782 451.835 55.565C455.35 54.2517 459.177 54.0142 462.828 54.8827L575.543 81.6764C579.175 82.6431 582.679 84.0396 585.98 85.8363L591.52 89.0319C592.945 89.9689 594.13 91.2267 594.98 92.7044C595.831 94.182 596.323 95.8385 596.418 97.5408V290.183C596.32 291.885 595.827 293.54 594.976 295.017C594.126 296.494 592.943 297.753 591.52 298.692L340.185 443.779C338.664 444.548 336.983 444.949 335.279 444.949C333.574 444.949 331.893 444.548 330.372 443.779L324.832 440.583C323.403 439.649 322.213 438.393 321.359 436.915C320.505 435.437 320.011 433.779 319.915 432.074V432.074Z" fill="#222D38"/>
<path opacity="0.3" d="M319.915 432.074V239.432C320.091 235.777 321.233 232.234 323.224 229.165L443.087 62.2571C445.274 59.2078 448.319 56.8782 451.835 55.565C455.35 54.2517 459.177 54.0142 462.828 54.8827L575.543 81.6764C579.175 82.6431 582.679 84.0396 585.98 85.8363L591.52 89.0319C592.945 89.9689 594.13 91.2267 594.98 92.7044C595.831 94.182 596.323 95.8385 596.418 97.5408V290.183C596.32 291.885 595.827 293.54 594.976 295.017C594.126 296.494 592.943 297.753 591.52 298.692L340.185 443.779C338.664 444.548 336.983 444.949 335.279 444.949C333.574 444.949 331.893 444.548 330.372 443.779L324.832 440.583C323.403 439.649 322.213 438.393 321.359 436.915C320.505 435.437 320.011 433.779 319.915 432.074V432.074Z" fill="white"/>
<path d="M342.945 146.325V392.139C342.945 395.259 345.158 396.545 347.862 394.975L583.824 258.832C585.256 257.902 586.448 256.646 587.302 255.167C588.157 253.689 588.649 252.029 588.74 250.324V4.50988C588.74 1.37103 586.547 0.104146 583.824 1.67357L347.862 137.817C346.431 138.748 345.24 140.004 344.385 141.483C343.531 142.961 343.038 144.62 342.945 146.325V146.325Z" fill="#FAFAFA"/>
<path d="M345.669 396.62C345.059 396.625 344.459 396.469 343.929 396.167C343.282 395.735 342.764 395.136 342.431 394.434C342.098 393.731 341.962 392.951 342.038 392.177V146.363C342.128 144.49 342.664 142.665 343.601 141.04C344.538 139.415 345.85 138.038 347.427 137.022L583.39 0.879338C584.005 0.377647 584.759 0.0752483 585.551 0.0123078C586.343 -0.0506326 587.135 0.128865 587.823 0.526963C588.51 0.925062 589.06 1.52291 589.4 2.24107C589.739 2.95924 589.853 3.76372 589.724 4.54764V250.361C589.636 252.233 589.101 254.056 588.163 255.678C587.225 257.3 585.913 258.673 584.335 259.683L348.373 395.826C347.558 396.326 346.625 396.6 345.669 396.62V396.62ZM586.018 1.84369C585.407 1.87862 584.815 2.06724 584.297 2.39204L348.335 138.63C347.05 139.482 345.981 140.621 345.21 141.956C344.439 143.291 343.987 144.787 343.891 146.325V392.139C343.778 392.582 343.813 393.051 343.99 393.473C344.167 393.894 344.478 394.247 344.874 394.476C345.27 394.705 345.73 394.798 346.184 394.742C346.638 394.685 347.062 394.482 347.389 394.162L583.352 258.019C584.637 257.168 585.708 256.03 586.479 254.694C587.25 253.359 587.7 251.863 587.795 250.323V4.50983C587.849 4.06637 587.788 3.61664 587.619 3.20309C587.451 2.78953 587.179 2.42581 586.831 2.14624C586.592 1.97362 586.311 1.86905 586.018 1.84369V1.84369Z" fill="#E0E0E0"/>
<path d="M337.859 244.122L320.841 234.289C320.29 235.95 319.985 237.683 319.934 239.432V432.075C320.029 433.779 320.524 435.437 321.378 436.915C322.232 438.393 323.421 439.65 324.85 440.584L330.371 443.779C331.891 444.553 333.573 444.956 335.278 444.956C336.984 444.956 338.665 444.553 340.185 443.779L342.549 442.437L337.859 244.122Z" fill="#222D38"/>
<g opacity="0.1">
<path opacity="0.1" d="M337.859 244.121L320.841 234.289C320.29 235.95 319.985 237.683 319.934 239.432V432.074C320.029 433.779 320.524 435.437 321.378 436.915C322.231 438.393 323.421 439.649 324.85 440.583L330.371 443.779C331.891 444.552 333.573 444.956 335.278 444.956C336.984 444.956 338.665 444.552 340.185 443.779L342.548 442.436L337.859 244.121Z" fill="black"/>
</g>
<path d="M596.436 97.541V290.183C596.373 291.947 595.844 293.662 594.905 295.156C594.179 296.414 593.2 297.509 592.031 298.371L591.841 298.484L591.52 298.692L340.204 443.779C339.723 444.119 339.164 444.331 338.579 444.397C337.994 444.463 337.402 444.381 336.857 444.157C336.325 443.815 335.9 443.331 335.629 442.759C335.358 442.188 335.253 441.552 335.325 440.924V248.3C335.283 247.611 335.408 246.921 335.69 246.29C335.972 245.659 336.403 245.107 336.946 244.679C337.489 244.251 338.128 243.962 338.807 243.835C339.486 243.708 340.186 243.748 340.847 243.951L446.471 269.081L460.312 272.371C461.949 272.681 463.639 272.536 465.199 271.953C466.759 271.369 468.13 270.37 469.162 269.062L485.196 246.731L593.127 96.4632C594.942 93.9673 596.436 94.4022 596.436 97.541Z" fill="#222D38"/>
<path opacity="0.3" d="M596.436 97.541V290.183C596.373 291.947 595.844 293.662 594.905 295.156C594.179 296.414 593.2 297.509 592.031 298.371L591.841 298.484L591.52 298.692L340.204 443.779C339.723 444.119 339.164 444.331 338.579 444.397C337.994 444.463 337.402 444.381 336.857 444.157C336.325 443.815 335.9 443.331 335.629 442.759C335.358 442.188 335.253 441.552 335.325 440.924V248.3C335.283 247.611 335.408 246.921 335.69 246.29C335.972 245.659 336.403 245.107 336.946 244.679C337.489 244.251 338.128 243.962 338.807 243.835C339.486 243.708 340.186 243.748 340.847 243.951L446.471 269.081L460.312 272.371C461.949 272.681 463.639 272.536 465.199 271.953C466.759 271.369 468.13 270.37 469.162 269.062L485.196 246.731L593.127 96.4632C594.942 93.9673 596.436 94.4022 596.436 97.541Z" fill="white"/>
<path d="M591.52 298.692L591.841 298.484L592.03 298.371C593.2 297.509 594.178 296.414 594.904 295.156C595.823 293.682 596.344 291.994 596.417 290.259L485.196 246.769L559.677 317.09L591.52 298.692Z" fill="#222D38"/>
<path d="M335.287 440.943C335.215 441.571 335.32 442.207 335.591 442.778C335.862 443.35 336.287 443.834 336.819 444.176C337.364 444.4 337.956 444.483 338.541 444.416C339.126 444.35 339.685 444.138 340.166 443.798V443.798L426.692 393.841L446.452 269.043L335.25 437.709L335.287 440.943Z" fill="#222D38"/>
<path d="M594.904 295.156C594.178 296.414 593.199 297.509 592.03 298.371L591.841 298.484L340.203 443.779C339.722 444.118 339.163 444.331 338.578 444.397C337.993 444.463 337.401 444.381 336.856 444.157L457.192 252.044C459.604 248.194 463.323 245.341 467.667 244.007C472.01 242.674 476.689 242.949 480.847 244.783L594.904 295.156Z" fill="#222D38"/>
<path opacity="0.3" d="M594.904 295.156C594.178 296.414 593.199 297.509 592.03 298.371L591.841 298.484L340.203 443.779C339.722 444.118 339.163 444.331 338.578 444.397C337.993 444.463 337.401 444.381 336.856 444.157L457.192 252.044C459.604 248.194 463.323 245.341 467.667 244.007C472.01 242.674 476.689 242.949 480.847 244.783L594.904 295.156Z" fill="white"/>
<path d="M446.849 202.938C444.643 203.279 442.387 203.079 440.275 202.354C438.164 201.629 436.26 200.402 434.729 198.778C431.855 195.582 430.417 190.647 430.417 184.01C430.422 176.521 432.028 169.12 435.126 162.303C438.306 155.287 442.697 148.887 448.097 143.394C453.904 137.373 460.523 132.192 467.762 128.002C474.859 123.918 480.916 121.655 485.934 121.214C490.982 120.76 494.783 122.065 497.392 125.09C500.002 128.116 501.287 132.748 501.287 138.951C501.397 145.101 499.94 151.179 497.052 156.611C494.507 161.531 490.628 165.633 485.858 168.448C484.212 169.618 482.193 170.143 480.185 169.923C479.471 169.782 478.813 169.437 478.289 168.931C477.766 168.424 477.4 167.777 477.236 167.068C475.661 170.046 473.661 172.779 471.298 175.18C468.908 177.646 466.184 179.765 463.205 181.476C458.062 184.388 453.959 185.258 450.933 184.256C447.908 183.254 446.471 180.19 446.471 175.085C446.514 168.669 448.491 162.416 452.144 157.141C456.12 151.293 461.402 146.451 467.573 142.997C470.15 141.462 472.951 140.339 475.874 139.669C478.047 139.08 480.338 139.08 482.511 139.669V159.58C482.511 161.187 482.795 162.17 483.343 162.549C483.891 162.927 484.799 162.738 486.085 162C488.48 160.442 490.253 158.094 491.096 155.363C492.374 151.675 492.982 147.788 492.892 143.886C492.892 138.919 491.808 135.307 489.64 133.051C488.481 131.918 487.068 131.08 485.518 130.606C483.968 130.132 482.328 130.037 480.734 130.328C476.117 131.033 471.696 132.681 467.743 135.169C459.383 139.806 452.177 146.269 446.66 154.078C441.562 161.405 438.854 170.13 438.908 179.056C438.908 184.489 440.023 188.454 442.254 190.95C443.411 192.199 444.859 193.143 446.469 193.697C448.079 194.251 449.801 194.399 451.482 194.126C456.188 193.46 460.699 191.803 464.718 189.267C467.492 187.662 470.118 185.814 472.565 183.745C474.843 181.864 476.916 179.747 478.748 177.43C478.938 177.186 479.161 176.969 479.41 176.787C479.58 176.692 479.75 176.787 479.902 177.014L481.982 180.796C482.058 180.946 482.115 181.104 482.152 181.268C482.086 181.689 481.879 182.076 481.566 182.365C479.281 185.112 476.749 187.644 474.002 189.928C471.11 192.355 468.017 194.531 464.756 196.433C459.324 199.863 453.216 202.082 446.849 202.938V202.938ZM471.431 167.389C473.231 165.265 474.28 162.607 474.418 159.826V148.291C471.719 148.519 469.12 149.416 466.855 150.901C463.248 152.93 460.175 155.788 457.892 159.24C455.75 162.406 454.598 166.138 454.583 169.961C454.583 173.156 455.377 175.066 456.984 175.633C458.592 176.201 461.069 175.633 464.453 173.61C467.194 172.025 469.591 169.91 471.506 167.389H471.431Z" fill="#E0E0E0"/>
<path d="M206.027 221.884L187.591 211.201H187.459C181.162 207.646 172.483 208.175 162.877 213.716C143.571 224.853 127.934 251.949 127.934 274.224C127.934 285.361 131.829 293.132 138.126 296.914L155.276 306.728L158.377 301.566C161.894 300.777 165.272 299.464 168.399 297.67C187.685 286.514 203.342 259.418 203.342 237.162C203.332 234.154 202.963 231.158 202.245 228.237L206.027 221.884Z" fill="#F28F8F"/>
<path d="M206.027 221.884L187.591 211.201H187.459C181.162 207.646 172.483 208.175 162.877 213.716C143.571 224.853 127.934 251.949 127.934 274.224C127.934 285.361 131.829 293.132 138.126 296.914L155.276 306.728L158.377 301.566C161.894 300.777 165.272 299.464 168.399 297.67C187.685 286.514 203.342 259.418 203.342 237.162C203.332 234.154 202.963 231.158 202.245 228.237L206.027 221.884Z" fill="#222D38"/>
<path opacity="0.4" d="M206.027 221.884L187.591 211.201H187.459C181.162 207.646 172.483 208.175 162.877 213.716C143.571 224.853 127.934 251.949 127.934 274.224C127.934 285.361 131.829 293.132 138.126 296.914L155.276 306.728L158.377 301.566C161.894 300.777 165.272 299.464 168.399 297.67C187.685 286.514 203.342 259.418 203.342 237.162C203.332 234.154 202.963 231.158 202.245 228.237L206.027 221.884Z" fill="black"/>
<path d="M180.595 223.869C161.289 235.026 145.652 262.122 145.652 284.377C145.652 306.633 161.289 315.69 180.595 304.553C199.901 293.416 215.539 266.32 215.539 244.045C215.539 221.771 199.901 212.732 180.595 223.869Z" fill="#222D38"/>
<path d="M166.942 289.71C166.583 289.71 166.394 289.502 166.394 289.181C166.431 288.825 166.534 288.478 166.697 288.16L168.455 284.208C168.572 283.821 168.802 283.478 169.117 283.224C169.379 283.106 169.662 283.042 169.949 283.035C171.522 282.942 173.075 282.63 174.563 282.109C176.541 281.442 178.442 280.568 180.235 279.499C183.025 277.988 185.472 275.915 187.421 273.411C188.882 271.517 189.697 269.204 189.746 266.812C189.746 262.633 187.194 262.028 182.088 264.921L177.115 267.927C176.302 268.381 175.735 268.551 175.395 268.4C175.054 268.249 174.884 267.795 174.884 267.038V265.469C174.857 264.801 175.035 264.142 175.395 263.578C175.85 262.963 176.438 262.459 177.115 262.103L182.05 259.248C184.028 258.172 185.705 256.618 186.929 254.729C187.954 253.143 188.518 251.303 188.555 249.416C188.555 245.369 185.706 244.991 180.008 248.281C176.504 250.278 173.349 252.832 170.667 255.844C170.415 256.129 170.137 256.388 169.835 256.62C169.724 256.673 169.598 256.686 169.478 256.659C169.358 256.631 169.251 256.564 169.174 256.468L167.491 254.578C167.397 254.491 167.322 254.385 167.27 254.268C167.218 254.151 167.19 254.025 167.188 253.897C167.227 253.463 167.414 253.055 167.718 252.743C169.393 250.648 171.295 248.746 173.39 247.071C175.83 245.083 178.429 243.299 181.162 241.739C183.629 240.203 186.35 239.121 189.198 238.543C190.094 238.325 191.027 238.304 191.932 238.484C192.836 238.664 193.691 239.039 194.436 239.583C195.107 240.23 195.625 241.02 195.953 241.893C196.28 242.767 196.408 243.702 196.327 244.632C196.284 246.713 195.821 248.765 194.965 250.663C194.051 252.855 192.773 254.875 191.183 256.639C192 256.365 192.872 256.303 193.718 256.459C194.565 256.614 195.358 256.982 196.024 257.527C196.607 258.206 197.049 258.993 197.325 259.843C197.601 260.694 197.705 261.59 197.631 262.481C197.487 266.673 196.017 270.712 193.434 274.016C190.262 278.269 186.212 281.791 181.559 284.34C174.903 288.235 170.031 290.025 166.942 289.71Z" fill="white"/>
<path d="M497.524 492.696C492.381 486.721 496.957 476.794 501.949 463.917C507.432 449.754 515.903 425.683 515.903 425.683L576.052 413.26C576.052 413.26 640.134 412.031 646.015 424.284C650.78 434.098 608.575 448.866 602.524 449.395L565.482 451.343L561.587 453.233L535.569 486.154L497.524 492.696Z" fill="#222D38"/>
<path d="M608.348 434.325C603.678 439.075 599.325 444.128 595.32 449.452C584.486 464.579 567.335 492.053 567.335 492.053C567.335 492.053 570.002 500.751 578.189 500.373C578.189 500.373 634.537 447.75 639.151 442.89C646.128 435.516 651.725 423.358 639.661 422.355C627.598 421.353 613.038 429.257 608.348 434.325Z" fill="#222D38"/>
<path d="M595.018 449.754C595.018 449.754 605.078 435.043 615.496 428.955C615.496 428.955 605.134 430.997 589.44 450.095L595.018 449.754Z" fill="#222D38"/>
<path opacity="0.1" d="M595.018 449.754C595.018 449.754 605.078 435.043 615.496 428.955C615.496 428.955 605.134 430.997 589.44 450.095L595.018 449.754Z" fill="black"/>
<path d="M601.863 468.36L597.911 469.117L601.579 482.674C601.579 482.674 605.134 482.334 606.363 482.41C608.154 481.985 609.878 481.317 611.488 480.424L610.542 472.142L606.193 467.604L601.863 468.36Z" fill="#FFA8A7"/>
<path d="M633.062 471.556C634.949 472.316 636.658 473.458 638.083 474.909C639.508 476.36 640.618 478.089 641.345 479.989C642.186 481.976 642.875 484.024 643.406 486.116C644.03 488.309 643.727 492.034 640.947 492.639C640.044 492.745 639.129 492.581 638.319 492.166C632.741 490.011 627.295 487.515 621.585 485.7C616.692 483.887 611.567 482.773 606.363 482.391C607.546 480.57 608.138 478.428 608.056 476.258C607.975 474.089 607.225 471.997 605.91 470.27C604.79 469.235 603.376 468.574 601.863 468.379C603.3 467.736 604.643 466.904 606.023 466.129C608.594 464.331 611.742 463.556 614.853 463.955C617.236 464.465 619.051 466.356 621.074 467.736C624.932 470.251 628.657 470.081 633.062 471.556Z" fill="#263238"/>
<path d="M505.636 479.706C510.609 478.174 518.551 476.813 542.111 475.602C565.671 474.392 597.911 469.098 597.911 469.098C603.394 474.373 601.579 482.655 601.579 482.655C601.579 482.655 559.734 495.892 546.101 497.65C524.393 500.449 516.906 500.241 507.111 498.142C496.106 495.778 489.166 484.754 505.636 479.706Z" fill="#222D38"/>
<path d="M591.747 367.482L609.445 409.781L596.777 417.572L572.422 376.332L591.747 367.482Z" fill="#F28F8F"/>
<path d="M555.14 327.623C564.821 327.736 575.467 331.253 579.135 338.835L594.262 370.035C594.262 370.035 585.715 382.552 572.139 381.664L555.14 327.623Z" fill="#E0E0E0"/>
<path d="M490.774 393.368C490.887 391.723 493.251 383.687 495.785 375.026L514.164 381.38L509.229 396.942L493.743 411.634C490.388 406.173 489.322 399.61 490.774 393.368Z" fill="#FFA8A7"/>
<path d="M535.342 328.209C523.807 330.988 508.094 334.6 503.537 347.117C498.98 359.635 492.457 381.739 492.457 381.739C494.99 386.126 508.888 389.757 513.71 387.223L515.979 379.659V425.645C524.998 435.459 569.491 432.944 576.128 413.222V350.578C576.128 340.556 570.569 328.511 555.196 327.623L535.342 328.209Z" fill="#FAFAFA"/>
<path d="M515.923 379.697L521.709 361.488L515.923 387.847V379.697Z" fill="#E0E0E0"/>
<path d="M530.955 276.947C529.928 276.814 528.885 276.915 527.902 277.242C526.92 277.57 526.024 278.115 525.283 278.838C522.843 281.334 523.392 285.947 525.283 296.536L532.846 297.387L530.955 276.947Z" fill="#263238"/>
<path d="M574.842 273.884C576.462 273.891 578.065 273.563 579.551 272.92C581.857 271.596 582.463 274.224 581.196 276.493C580.358 278.129 579.116 279.524 577.586 280.543C576.057 281.563 574.292 282.174 572.46 282.317C572.46 281.996 570.304 276.437 570.304 276.437L574.842 273.884Z" fill="#263238"/>
<path d="M534.491 297.501C533.375 298.163 531.768 296.026 530.388 294.57C529.846 293.951 529.156 293.48 528.382 293.202C527.608 292.923 526.776 292.847 525.964 292.979C525.152 293.111 524.388 293.449 523.742 293.959C523.097 294.469 522.592 295.135 522.276 295.894C519.988 300.715 525.188 307.125 528.232 309.243C529.086 309.98 530.152 310.428 531.276 310.523C532.4 310.618 533.525 310.355 534.491 309.773L535.285 328.209C536.634 331.163 538.694 333.737 541.281 335.701C543.868 337.664 546.901 338.956 550.109 339.459C560.925 340.915 558.694 331.99 555.139 327.623V320.872C557.847 321.45 560.631 321.59 563.383 321.288C564.783 320.91 568.148 316.845 570.323 312.288C572.762 307.182 576.828 298.106 573.216 282.733C569.321 266.245 551.603 265.715 541.071 272.39C530.539 279.065 534.491 297.501 534.491 297.501Z" fill="#FFA8A7"/>
<path d="M534.491 299.373C533.924 299.373 531.787 295.837 530.388 294.57C528.497 292.812 530.955 276.947 530.955 276.947C530.955 276.947 529.064 270.915 532.846 266.926C536.628 262.936 544.04 263.598 549.448 263.409C556.074 263.445 562.637 262.126 568.735 259.532C576.412 256.204 576.979 255.75 577.924 259.173C578.87 262.595 579.248 270.253 574.672 275.416L572.176 279.481C572.176 279.481 569.85 281.372 562.722 282.317C555.593 283.263 543.378 279.349 541.922 279.141C539.842 278.857 539.407 280.861 538.292 286.345C537.233 291.167 536.382 299.335 534.491 299.373Z" fill="#263238"/>
<path d="M530.974 278.176L524.205 274.546C524.428 274.096 524.738 273.695 525.117 273.366C525.496 273.037 525.937 272.787 526.414 272.63C526.891 272.474 527.395 272.413 527.895 272.453C528.396 272.493 528.883 272.633 529.329 272.863C530.231 273.37 530.903 274.204 531.209 275.192C531.515 276.18 531.431 277.248 530.974 278.176V278.176Z" fill="#263238"/>
<path d="M555.12 320.872C555.12 320.872 545.099 318.849 541.601 317.09C539.542 316.011 537.855 314.337 536.76 312.287C537.292 314.344 538.23 316.273 539.521 317.96C542.073 321.231 555.12 323.633 555.12 323.633V320.872Z" fill="#F28F8F"/>
<path d="M555.442 297.122C555.427 297.515 555.297 297.895 555.068 298.215C554.839 298.534 554.521 298.779 554.154 298.919C553.786 299.06 553.386 299.089 553.002 299.003C552.618 298.917 552.268 298.721 551.996 298.438C551.723 298.155 551.539 297.797 551.468 297.411C551.397 297.024 551.44 296.625 551.594 296.263C551.748 295.901 552.004 295.593 552.332 295.376C552.66 295.159 553.044 295.043 553.437 295.042C553.706 295.047 553.97 295.105 554.216 295.212C554.462 295.32 554.684 295.474 554.871 295.667C555.057 295.86 555.203 296.088 555.301 296.338C555.399 296.588 555.447 296.854 555.442 297.122Z" fill="#263238"/>
<path d="M553.324 289.559L549.013 291.923C548.714 291.332 548.652 290.649 548.838 290.014C549.024 289.378 549.445 288.837 550.015 288.5C550.3 288.345 550.614 288.249 550.937 288.218C551.261 288.188 551.587 288.223 551.896 288.322C552.205 288.421 552.492 288.581 552.737 288.794C552.982 289.007 553.182 289.267 553.324 289.559V289.559Z" fill="#263238"/>
<path d="M554.251 310.548L558.846 312.288C558.744 312.594 558.582 312.878 558.368 313.12C558.155 313.363 557.896 313.561 557.605 313.702C557.314 313.843 556.998 313.925 556.675 313.941C556.353 313.958 556.03 313.91 555.726 313.8C555.107 313.555 554.607 313.079 554.332 312.472C554.057 311.865 554.028 311.176 554.251 310.548Z" fill="#F28F8F"/>
<path d="M573.349 291.223L569.435 288.198C569.62 287.935 569.857 287.713 570.131 287.544C570.404 287.375 570.709 287.264 571.027 287.216C571.345 287.168 571.67 287.185 571.981 287.266C572.292 287.347 572.584 287.49 572.838 287.687C573.361 288.098 573.705 288.695 573.8 289.353C573.896 290.011 573.734 290.681 573.349 291.223Z" fill="#263238"/>
<path d="M572.138 296.556C572.123 296.948 571.993 297.328 571.764 297.648C571.535 297.967 571.217 298.212 570.85 298.353C570.483 298.493 570.082 298.522 569.699 298.436C569.315 298.35 568.965 298.154 568.692 297.871C568.419 297.588 568.236 297.231 568.164 296.844C568.093 296.457 568.137 296.058 568.291 295.696C568.444 295.335 568.701 295.026 569.029 294.809C569.356 294.592 569.741 294.476 570.134 294.476C570.402 294.481 570.667 294.538 570.913 294.645C571.159 294.753 571.381 294.907 571.567 295.1C571.753 295.294 571.899 295.521 571.997 295.771C572.095 296.021 572.143 296.287 572.138 296.556V296.556Z" fill="#263238"/>
<path d="M562.684 296.309L560.793 308.26L567.411 307.484L562.684 296.309Z" fill="#F28F8F"/>
<path d="M631.663 432.018L590.914 408.495C590.557 408.291 590.153 408.184 589.742 408.184C589.331 408.184 588.927 408.291 588.57 408.495L517.114 449.754L559.015 474.033L631.663 432.018Z" fill="#37474F"/>
<path d="M558.637 470.497L536.666 457.828L600.917 420.729L623.003 433.342L558.637 470.497Z" fill="#263238"/>
<path d="M547.841 435.251L548.257 435.478L559.016 441.699L578.17 430.637L578.567 430.41L567.392 423.962L547.841 435.251Z" fill="#263238"/>
<path d="M548.256 435.478L559.015 441.699L578.17 430.637L567.392 424.416L548.256 435.478Z" fill="#263238"/>
<path d="M517.114 449.754V450.718C517.108 451.401 517.28 452.073 517.611 452.669C517.942 453.266 518.422 453.766 519.005 454.122L556.973 476.037C557.571 476.384 558.249 476.567 558.94 476.567C559.631 476.567 560.309 476.384 560.906 476.037L629.621 436.329C630.202 435.972 630.681 435.471 631.012 434.875C631.343 434.279 631.515 433.607 631.512 432.925V431.961L559.015 474.033L517.114 449.754Z" fill="#263238"/>
<path d="M559.016 474.033V476.642C559.682 476.635 560.334 476.453 560.907 476.113L629.621 436.405C630.202 436.047 630.681 435.547 631.012 434.95C631.344 434.354 631.516 433.683 631.512 433.001V432.037L559.016 474.033Z" fill="#263238"/>
<path d="M560.131 474.544C560.781 474.792 561.478 474.892 562.172 474.837C562.865 474.781 563.538 474.571 564.14 474.222L632.552 434.722C633.145 434.382 633.655 433.913 634.045 433.35C634.434 432.788 634.693 432.145 634.802 431.47L642.365 386.826C642.384 386.568 642.384 386.309 642.365 386.051C642.362 384.809 641.865 383.619 640.985 382.742L569.888 423.793C569.451 424.045 569.075 424.392 568.787 424.807C568.499 425.222 568.307 425.696 568.224 426.194L560.131 474.544Z" fill="#263238"/>
<path d="M559.016 474.033L559.489 474.298C559.697 474.416 559.912 474.523 560.131 474.619L568.224 426.269C568.307 425.771 568.5 425.297 568.787 424.882C569.075 424.467 569.451 424.121 569.888 423.868L640.985 382.817C640.695 382.547 640.378 382.306 640.04 382.099L568.811 423.149C568.371 423.402 567.993 423.748 567.702 424.163C567.411 424.578 567.215 425.052 567.128 425.551L559.016 474.033Z" fill="#455A64"/>
<path d="M598.648 433.304C599.725 429.571 602.196 426.396 605.55 424.435C608.859 422.545 611.128 423.396 610.637 426.326C609.56 430.059 607.089 433.234 603.735 435.195C600.426 437.18 598.157 436.216 598.648 433.304Z" fill="#37474F"/>
<path d="M509.229 396.905C509.229 396.905 521.501 444.176 526.682 447.561C531.863 450.946 541.506 453.423 546.12 455.125C550.734 456.826 552.832 459.152 552.038 459.795C551.244 460.438 544.588 461.137 542.281 461.951C539.975 462.764 542.962 466.489 548.068 470.441C553.173 474.393 557.522 474.033 556.955 476.662C556.387 479.29 545.004 481.918 535.399 476.283C525.793 470.649 522.881 463.047 517.152 456.599C511.422 450.152 498.338 423.358 493.743 411.634C493.743 411.634 494.178 389.852 501.306 391.232C508.435 392.612 509.229 396.905 509.229 396.905Z" fill="#FFA8A7"/>
<path d="M567.619 492.696C568.489 494.795 571.495 500.581 578.189 500.259L594.64 484.868L567.619 492.696Z" fill="#222D38"/>
<path opacity="0.1" d="M567.619 492.696C568.489 494.795 571.495 500.581 578.189 500.259L594.64 484.868L567.619 492.696Z" fill="black"/>
<path d="M577.546 502.093C577.554 502.162 577.554 502.232 577.546 502.301C577.554 502.232 577.554 502.162 577.546 502.093V502.093Z" fill="#263238"/>
<path d="M572.593 519.773C572.434 514.822 573.25 509.888 574.994 505.251V505.251C574.202 505.804 573.288 506.158 572.331 506.283C571.373 506.408 570.399 506.301 569.491 505.97C563.989 504.325 562.609 496.648 563.479 494.984C562.684 495.683 561.852 496.345 561.039 497.026C558.432 498.776 556.576 501.442 555.839 504.495C555.461 506.896 556.577 509.26 557.125 511.642C558.184 516.18 557.125 520.908 556.955 525.559C556.993 527.589 557.448 529.59 558.29 531.437C559.132 533.284 560.345 534.939 561.852 536.299C563.402 537.811 565.072 539.196 566.844 540.44C567.489 541.165 568.343 541.672 569.289 541.892C570.234 542.111 571.224 542.032 572.122 541.664C573.021 541.297 573.783 540.66 574.304 539.842C574.825 539.023 575.079 538.063 575.032 537.093C574.313 531.194 572.933 525.918 572.593 519.773Z" fill="#263238"/>
<path d="M578.832 499.276C578.322 500.24 577.868 501.167 577.471 502.094C577.944 501.186 578.397 500.24 578.832 499.276Z" fill="#37474F"/>
<path d="M563.441 494.984L563.8 494.662L563.441 494.984Z" fill="#37474F"/>
</svg>
